<mxfile host="Electron" modified="2024-06-17T20:16:15.319Z" agent="Mozilla/5.0 (Macintosh; Intel Mac OS X 10_15_7) AppleWebKit/537.36 (KHTML, like Gecko) draw.io/24.5.3 Chrome/124.0.6367.207 Electron/30.0.6 Safari/537.36" etag="S41VGYF_iTgbFpfUalr7" scale="1" border="0" version="24.5.3" type="device">
  <diagram name="Proposal Ticket State Machine" id="MaWezWCT4r2Fw7gTnUOl">
    <mxGraphModel dx="1200" dy="854" grid="1" gridSize="10" guides="1" tooltips="1" connect="1" arrows="1" fold="1" page="1" pageScale="1" pageWidth="850" pageHeight="1100" math="0" shadow="0">
      <root>
        <mxCell id="2_KgRl74RUO92zCowi1K-0" />
        <mxCell id="2_KgRl74RUO92zCowi1K-1" parent="2_KgRl74RUO92zCowi1K-0" />
        <mxCell id="doCWTxNTExHTbLrOV8PU-0" value="" style="edgeStyle=orthogonalEdgeStyle;rounded=0;orthogonalLoop=1;jettySize=auto;html=1;" parent="2_KgRl74RUO92zCowi1K-1" source="2_KgRl74RUO92zCowi1K-3" target="2_KgRl74RUO92zCowi1K-9" edge="1">
          <mxGeometry relative="1" as="geometry" />
        </mxCell>
        <mxCell id="2_KgRl74RUO92zCowi1K-3" value="DRAFT" style="rounded=1;whiteSpace=wrap;html=1;" parent="2_KgRl74RUO92zCowi1K-1" vertex="1">
          <mxGeometry x="220" y="140" width="120" height="60" as="geometry" />
        </mxCell>
        <mxCell id="2_KgRl74RUO92zCowi1K-6" style="edgeStyle=orthogonalEdgeStyle;rounded=0;orthogonalLoop=1;jettySize=auto;html=1;exitX=1;exitY=0.5;exitDx=0;exitDy=0;entryX=0;entryY=0.5;entryDx=0;entryDy=0;" parent="2_KgRl74RUO92zCowi1K-1" source="2_KgRl74RUO92zCowi1K-9" target="2_KgRl74RUO92zCowi1K-11" edge="1">
          <mxGeometry relative="1" as="geometry" />
        </mxCell>
        <mxCell id="2_KgRl74RUO92zCowi1K-7" style="edgeStyle=orthogonalEdgeStyle;rounded=0;orthogonalLoop=1;jettySize=auto;html=1;entryX=0;entryY=0.5;entryDx=0;entryDy=0;exitX=0.5;exitY=1;exitDx=0;exitDy=0;" parent="2_KgRl74RUO92zCowi1K-1" source="2_KgRl74RUO92zCowi1K-9" target="2_KgRl74RUO92zCowi1K-12" edge="1">
          <mxGeometry relative="1" as="geometry">
            <mxPoint x="370" y="250" as="sourcePoint" />
          </mxGeometry>
        </mxCell>
        <mxCell id="2_KgRl74RUO92zCowi1K-8" style="edgeStyle=orthogonalEdgeStyle;rounded=0;orthogonalLoop=1;jettySize=auto;html=1;exitX=0.75;exitY=1;exitDx=0;exitDy=0;entryX=0;entryY=0.5;entryDx=0;entryDy=0;" parent="2_KgRl74RUO92zCowi1K-1" source="2_KgRl74RUO92zCowi1K-9" target="2_KgRl74RUO92zCowi1K-15" edge="1">
          <mxGeometry relative="1" as="geometry" />
        </mxCell>
        <mxCell id="2_KgRl74RUO92zCowi1K-9" value="VOTING" style="rounded=1;whiteSpace=wrap;html=1;" parent="2_KgRl74RUO92zCowi1K-1" vertex="1">
          <mxGeometry x="380" y="140" width="120" height="60" as="geometry" />
        </mxCell>
        <mxCell id="rsReMiDKvg2wtkZX3wby-4" style="edgeStyle=orthogonalEdgeStyle;rounded=0;orthogonalLoop=1;jettySize=auto;html=1;entryX=0;entryY=0.5;entryDx=0;entryDy=0;" parent="2_KgRl74RUO92zCowi1K-1" source="2_KgRl74RUO92zCowi1K-11" target="5VB7DdaB7kp4mr6X4wFm-0" edge="1">
          <mxGeometry relative="1" as="geometry" />
        </mxCell>
        <mxCell id="2_KgRl74RUO92zCowi1K-11" value="ACCEPTED" style="rounded=1;whiteSpace=wrap;html=1;" parent="2_KgRl74RUO92zCowi1K-1" vertex="1">
          <mxGeometry x="540" y="140" width="120" height="60" as="geometry" />
        </mxCell>
        <mxCell id="rsReMiDKvg2wtkZX3wby-5" style="edgeStyle=orthogonalEdgeStyle;rounded=0;orthogonalLoop=1;jettySize=auto;html=1;entryX=0.5;entryY=1;entryDx=0;entryDy=0;" parent="2_KgRl74RUO92zCowi1K-1" source="2_KgRl74RUO92zCowi1K-12" target="rsReMiDKvg2wtkZX3wby-2" edge="1">
          <mxGeometry relative="1" as="geometry" />
        </mxCell>
        <mxCell id="2_KgRl74RUO92zCowi1K-12" value="WITHDRAWN" style="rounded=1;whiteSpace=wrap;html=1;" parent="2_KgRl74RUO92zCowi1K-1" vertex="1">
          <mxGeometry x="540" y="300" width="120" height="60" as="geometry" />
        </mxCell>
        <mxCell id="rsReMiDKvg2wtkZX3wby-3" style="edgeStyle=orthogonalEdgeStyle;rounded=0;orthogonalLoop=1;jettySize=auto;html=1;" parent="2_KgRl74RUO92zCowi1K-1" source="2_KgRl74RUO92zCowi1K-15" target="rsReMiDKvg2wtkZX3wby-2" edge="1">
          <mxGeometry relative="1" as="geometry" />
        </mxCell>
        <mxCell id="2_KgRl74RUO92zCowi1K-15" value="SUPERCEDED" style="rounded=1;whiteSpace=wrap;html=1;" parent="2_KgRl74RUO92zCowi1K-1" vertex="1">
          <mxGeometry x="540" y="220" width="120" height="60" as="geometry" />
        </mxCell>
        <mxCell id="rsReMiDKvg2wtkZX3wby-1" style="edgeStyle=orthogonalEdgeStyle;rounded=0;orthogonalLoop=1;jettySize=auto;html=1;" parent="2_KgRl74RUO92zCowi1K-1" source="rsReMiDKvg2wtkZX3wby-0" target="2_KgRl74RUO92zCowi1K-3" edge="1">
          <mxGeometry relative="1" as="geometry" />
        </mxCell>
        <mxCell id="rsReMiDKvg2wtkZX3wby-0" value="" style="ellipse;whiteSpace=wrap;html=1;aspect=fixed;fillColor=#647687;fontColor=#ffffff;strokeColor=#314354;" parent="2_KgRl74RUO92zCowi1K-1" vertex="1">
          <mxGeometry x="140" y="145" width="50" height="50" as="geometry" />
        </mxCell>
        <mxCell id="rsReMiDKvg2wtkZX3wby-2" value="" style="ellipse;whiteSpace=wrap;html=1;aspect=fixed;fillColor=#647687;fontColor=#ffffff;strokeColor=#314354;" parent="2_KgRl74RUO92zCowi1K-1" vertex="1">
          <mxGeometry x="735" y="225" width="50" height="50" as="geometry" />
        </mxCell>
        <mxCell id="5VB7DdaB7kp4mr6X4wFm-1" style="edgeStyle=orthogonalEdgeStyle;rounded=0;orthogonalLoop=1;jettySize=auto;html=1;entryX=0.5;entryY=0;entryDx=0;entryDy=0;" parent="2_KgRl74RUO92zCowi1K-1" source="5VB7DdaB7kp4mr6X4wFm-0" target="rsReMiDKvg2wtkZX3wby-2" edge="1">
          <mxGeometry relative="1" as="geometry" />
        </mxCell>
        <mxCell id="5VB7DdaB7kp4mr6X4wFm-0" value="DELIVERED" style="rounded=1;whiteSpace=wrap;html=1;" parent="2_KgRl74RUO92zCowi1K-1" vertex="1">
          <mxGeometry x="700" y="140" width="120" height="60" as="geometry" />
        </mxCell>
      </root>
    </mxGraphModel>
  </diagram>
</mxfile>
